<svg xmlns="http://www.w3.org/2000/svg" viewBox="0 0 1201 1001"><defs><style>.cls-1{fill:#4f4f4d;}.cls-2{fill:#26abf8;}.cls-3{fill:#453132;}.cls-4{fill:#f6fa4d;}.cls-5{fill:#fe5051;}.cls-6{fill:#fef8f8;}.cls-7{fill:#6ba66e;}.cls-8{fill:#b8303a;}.cls-9{fill:none;stroke:#000;stroke-miterlimit:10;stroke-width:1px;}</style></defs><title>pokedex_exactos</title><g id="Capa_2" data-name="Capa 2"><g id="Base_color" data-name="Base color"><path class="cls-1" d="M1121.1,636.82v8a3,3,0,0,1-3,3h-59.3a3,3,0,0,1-3-3v-8a3,3,0,0,1,3-3h59.3A3,3,0,0,1,1121.1,636.82Z"/><path class="cls-2" d="M1121.1,547.29v64.25a7.29,7.29,0,0,1-7.3,7.27h-73.39c.19-17.88.46-45.35.6-71.52Z"/><path class="cls-2" d="M1121.1,483v63.28H1041c.18-33.72.15-65-.53-70.55h73.32A7.29,7.29,0,0,1,1121.1,483Z"/><path class="cls-3" d="M1119.35,296.9V413.46A13.3,13.3,0,0,1,1106,426.71H720.6a13.3,13.3,0,0,1-13.31-13.25V296.9a13.3,13.3,0,0,1,13.31-13.26H1106A13.3,13.3,0,0,1,1119.35,296.9Z"/><ellipse class="cls-4" cx="1087.94" cy="729.87" rx="22.11" ry="22.01"/><path class="cls-5" d="M1087.94,751.88a22,22,0,1,0-22.11-22A22.09,22.09,0,0,0,1087.94,751.88Zm0-45a23,23,0,1,1-23.12,23A23.1,23.1,0,0,1,1087.94,706.85Z"/><path class="cls-5" d="M1118.09,647.83a3,3,0,0,0,3-3v-8a3,3,0,0,0-3-3h-59.3a3,3,0,0,0-3,3v8a3,3,0,0,0,3,3Zm-63.32-11a4,4,0,0,1,4-4h59.3a4,4,0,0,1,4,4v8a4,4,0,0,1-4,4h-59.3a4,4,0,0,1-4-4Z"/><path class="cls-2" d="M1039.56,475.74c.6,3.49.62,35.23.44,70.55H956.59c.18-33.72.15-65-.53-70.55Z"/><path class="cls-2" d="M956.59,547.29H1040c-.13,25.08-.37,51.84-.58,71.52H956C956.18,600.93,956.45,573.46,956.59,547.29Z"/><path class="cls-1" d="M1039.7,636.82v8a3,3,0,0,1-3,3H977.39a3,3,0,0,1-3-3v-8a3,3,0,0,1,3-3h59.29A3,3,0,0,1,1039.7,636.82Z"/><path class="cls-5" d="M977.39,648.83a4,4,0,0,1-4-4v-8a4,4,0,0,1,4-4h59.29a4,4,0,0,1,4,4v8a4,4,0,0,1-4,4Zm59.29-15H977.39a3,3,0,0,0-3,3v8a3,3,0,0,0,3,3h59.29a3,3,0,0,0,3-3v-8A3,3,0,0,0,1036.68,633.82Z"/><path class="cls-2" d="M955.13,475.74c.61,3.49.63,35.23.45,70.55H873.17c.19-33.72.16-65-.53-70.55Z"/><path class="cls-3" d="M1121.1,872.56a8.4,8.4,0,0,1-8.41,8.38h-157a8.41,8.41,0,0,1-8.42-8.38V818.28a8.4,8.4,0,0,1,8.42-8.37h157a8.4,8.4,0,0,1,8.41,8.37Z"/><path class="cls-2" d="M873.17,547.29h82.4c-.13,25.08-.38,51.84-.59,71.52H872.57C872.76,600.93,873,573.46,873.17,547.29Z"/><path class="cls-5" d="M1122.11,818.28a9.41,9.41,0,0,0-9.42-9.37h-157a9.41,9.41,0,0,0-9.43,9.37v54.28a9.42,9.42,0,0,0,9.43,9.38h157a9.41,9.41,0,0,0,9.42-9.38Zm58.29-589.66v703A54.6,54.6,0,0,1,1125.74,986H657.79V87.54h69.13c4.3,0,8.22-.07,11.69-.13,35.37-.6,37.5-.63,122.36,72.05,64.93,55.6,98,67,139.53,69.13v0Zm-58.29,416.2v-8a4,4,0,0,0-4-4h-59.3a4,4,0,0,0-4,4v8a4,4,0,0,0,4,4h59.3A4,4,0,0,0,1122.11,644.82Zm0-33.28V483a8.3,8.3,0,0,0-8.31-8.27H713.34A8.3,8.3,0,0,0,705,483V611.54a8.3,8.3,0,0,0,8.32,8.27H1113.8A8.3,8.3,0,0,0,1122.11,611.54Zm-1.76-198.08V296.9A14.31,14.31,0,0,0,1106,282.64H720.6a14.31,14.31,0,0,0-14.32,14.26V413.46a14.3,14.3,0,0,0,14.32,14.25H1106A14.3,14.3,0,0,0,1120.35,413.46Zm-9.3,316.41a23.12,23.12,0,1,0-23.11,23A23.1,23.1,0,0,0,1111.05,729.87Zm-70.35-85v-8a4,4,0,0,0-4-4H977.39a4,4,0,0,0-4,4v8a4,4,0,0,0,4,4h59.29A4,4,0,0,0,1040.7,644.82ZM880.9,872.56V818.28a9.41,9.41,0,0,0-9.42-9.37h-157a9.41,9.41,0,0,0-9.43,9.37v54.28a9.42,9.42,0,0,0,9.43,9.38h157A9.41,9.41,0,0,0,880.9,872.56Zm-8-139V680.16a9.35,9.35,0,0,0-9.36-9.32H714.39a9.35,9.35,0,0,0-9.37,9.32v53.39a9.35,9.35,0,0,0,9.37,9.32H863.5A9.35,9.35,0,0,0,872.86,733.55Z"/><path class="cls-5" d="M1112.69,808.91a9.41,9.41,0,0,1,9.42,9.37v54.28a9.41,9.41,0,0,1-9.42,9.38h-157a9.42,9.42,0,0,1-9.43-9.38V818.28a9.41,9.41,0,0,1,9.43-9.37Zm8.41,9.37a8.4,8.4,0,0,0-8.41-8.37h-157a8.4,8.4,0,0,0-8.42,8.37v54.28a8.41,8.41,0,0,0,8.42,8.38h157a8.4,8.4,0,0,0,8.41-8.38Z"/><path class="cls-3" d="M879.9,818.28v54.28a8.41,8.41,0,0,1-8.42,8.38h-157a8.41,8.41,0,0,1-8.42-8.38V818.28a8.41,8.41,0,0,1,8.42-8.37h157A8.41,8.41,0,0,1,879.9,818.28Z"/><path class="cls-2" d="M871.72,475.74c.6,3.49.62,35.23.44,70.55h-82.4c.18-33.72.15-65-.54-70.55Z"/><path class="cls-2" d="M789.76,547.29h82.39c-.13,25.08-.37,51.84-.58,71.52H789.15C789.35,600.93,789.62,573.46,789.76,547.29Z"/><path class="cls-6" d="M871.86,680.16v53.39a8.35,8.35,0,0,1-8.36,8.32h-74v-70h74A8.35,8.35,0,0,1,871.86,680.16Z"/><path class="cls-2" d="M788.3,475.74c.6,3.49.62,35.23.44,70.55H706V483a7.3,7.3,0,0,1,7.31-7.27Z"/><path class="cls-2" d="M706,547.29h82.7c-.13,25.08-.37,51.84-.58,71.52H713.34a7.3,7.3,0,0,1-7.31-7.27Z"/><path class="cls-6" d="M788.44,671.84v70H714.39a8.35,8.35,0,0,1-8.36-8.32V680.16a8.35,8.35,0,0,1,8.36-8.32Z"/><path class="cls-5" d="M711.09,71.55c4.57,0,8.82-.07,12.94-.13,41.71-.62,62.65-.93,144,70,70.36,61.39,98.54,69.09,142,71.17H1199.5L1199,943.28c0,31-26.4,56.22-58.84,56.22H636.68V71.55Zm470.32,860v-704H1001c-41.47-2.07-74.43-13.29-139.37-68.91-85.17-72.93-87.3-72.89-123-72.29-3.46.06-7.38.13-11.67.13H656.78V987h469A55.61,55.61,0,0,0,1181.41,931.58Z"/><path class="cls-5" d="M1120.35,413.46A14.3,14.3,0,0,1,1106,427.71H720.6a14.3,14.3,0,0,1-14.32-14.25V296.9a14.31,14.31,0,0,1,14.32-14.26H1106a14.31,14.31,0,0,1,14.32,14.26ZM1106,426.71a13.3,13.3,0,0,0,13.32-13.25V296.9A13.3,13.3,0,0,0,1106,283.64H720.6a13.3,13.3,0,0,0-13.31,13.26V413.46a13.3,13.3,0,0,0,13.31,13.25Z"/><path class="cls-5" d="M705,818.28a9.41,9.41,0,0,1,9.43-9.37h157a9.41,9.41,0,0,1,9.42,9.37v54.28a9.41,9.41,0,0,1-9.42,9.38h-157a9.42,9.42,0,0,1-9.43-9.38Zm9.43-8.37a8.41,8.41,0,0,0-8.42,8.37v54.28a8.41,8.41,0,0,0,8.42,8.38h157a8.41,8.41,0,0,0,8.42-8.38V818.28a8.41,8.41,0,0,0-8.42-8.37Z"/><path class="cls-5" d="M863.5,741.87a8.35,8.35,0,0,0,8.36-8.32V680.16a8.35,8.35,0,0,0-8.36-8.32h-74v70Zm-149.11,1a9.35,9.35,0,0,1-9.37-9.32V680.16a9.35,9.35,0,0,1,9.37-9.32H863.5a9.35,9.35,0,0,1,9.36,9.32v53.39a9.35,9.35,0,0,1-9.36,9.32Zm0-71a8.35,8.35,0,0,0-8.36,8.32v53.39a8.35,8.35,0,0,0,8.36,8.32h74.05v-70Z"/><path class="cls-5" d="M956.59,547.29c-.14,26.17-.41,53.64-.6,71.52h83.42c.21-19.68.45-46.44.58-71.52ZM789.15,618.81h82.42c.21-19.68.45-46.44.58-71.52H789.76C789.62,573.46,789.35,600.93,789.15,618.81Zm84-71.52c-.14,26.17-.41,53.64-.6,71.52H955c.21-19.68.46-46.44.59-71.52Zm-83.41-1h82.4c.18-35.32.16-67.06-.44-70.55h-82.5C789.91,481.25,789.94,512.57,789.76,546.29Zm166.3-70.55c.68,5.51.71,36.83.53,70.55H1040c.18-35.32.16-67.06-.44-70.55Zm-.48,70.55c.18-35.32.16-67.06-.45-70.55H872.64c.69,5.51.72,36.83.53,70.55Zm-249.55,0h82.71c.18-35.32.16-67.06-.44-70.55h-75A7.3,7.3,0,0,0,706,483Zm0,65.25a7.3,7.3,0,0,0,7.31,7.27h74.81c.21-19.68.45-46.44.58-71.52H706Zm407.77,7.27a7.29,7.29,0,0,0,7.3-7.27V547.29H1041c-.14,26.17-.41,53.64-.6,71.52Zm7.3-135.8a7.29,7.29,0,0,0-7.3-7.27h-73.32c.68,5.51.71,36.83.53,70.55h80.09Zm-7.3,136.8H713.34a8.3,8.3,0,0,1-8.32-8.27V483a8.3,8.3,0,0,1,8.32-8.27H1113.8a8.3,8.3,0,0,1,8.31,8.27V611.54A8.3,8.3,0,0,1,1113.8,619.81Z"/><path class="cls-5" d="M726.92,86.54c4.29,0,8.21-.07,11.67-.13,35.75-.6,37.88-.64,123,72.29,64.94,55.62,97.9,66.84,139.37,68.91h180.4v704A55.61,55.61,0,0,1,1125.74,987h-469V86.54ZM861,159.46c-84.86-72.68-87-72.65-122.36-72.05-3.47.06-7.39.13-11.69.13H657.79V986h468a54.6,54.6,0,0,0,54.66-54.41v-703H1000.5v0C959,226.45,925.9,215.06,861,159.46Z"/><rect class="cls-5" x="560.3" y="904.95" width="75.38" height="94.05"/><rect class="cls-5" x="560.3" y="171.59" width="75.38" height="732.37"/><path class="cls-5" d="M635.68,1.5V170.59H560.3v-99h25.13v-1H469.56c-4.29,0-8.21-.07-11.67-.13-35.74-.6-37.88-.64-123,72.28-64.94,55.62-97.9,66.85-139.37,68.92H13c-.28-5.28-.15-60.48,0-105.15,0-20.16.1-38.39.1-49.43,0-17.76,19.87-53.45,56.31-55.53Zm-356.79,33a13.07,13.07,0,1,0-13.06,13A13,13,0,0,0,278.89,34.52Zm-41.2,0a13.07,13.07,0,1,0-13.07,13A13,13,0,0,0,237.69,34.52Zm-39.2,0a13.07,13.07,0,1,0-13.06,13A13,13,0,0,0,198.49,34.52Zm-36.18,72a61.31,61.31,0,1,0-61.31,61A61.24,61.24,0,0,0,162.31,106.55Z"/><path class="cls-1" d="M523.11,831v32.89a3.06,3.06,0,0,1-3.07,3.06H465.83v54.12A2.92,2.92,0,0,1,462.9,924H428.55a2.91,2.91,0,0,1-2.92-2.91V865.93h-53a2.77,2.77,0,0,1-2.78-2.77v-33a2.78,2.78,0,0,1,2.78-2.77h54.5l-.5-54a3,3,0,0,1,3-3h33.67a3,3,0,0,1,3,3l.5,54.53H520A3.06,3.06,0,0,1,523.11,831Zm-68.59,16.19a8,8,0,1,0-8,8A8,8,0,0,0,454.52,847.17Z"/><path class="cls-6" d="M519.6,257.67V684.72a20.7,20.7,0,0,1-20.73,20.63H130.38l-75.1-89.72V258A16.9,16.9,0,0,1,72.2,241.12H503A16.61,16.61,0,0,1,519.6,257.67ZM481.31,680.84v-6H387.84v6Zm0-13v-6H387.84v6Zm0-13v-6H387.84v6Zm0-13v-6H387.84v6Zm0-13v-6H387.84v6Zm-.91-48.39V314a14.91,14.91,0,0,0-14.93-14.87h-345A14.91,14.91,0,0,0,105.53,314V580.43a14.91,14.91,0,0,0,14.93,14.87h345A14.91,14.91,0,0,0,480.4,580.43ZM331.66,272.64a16.59,16.59,0,1,0-16.59,16.51A16.56,16.56,0,0,0,331.66,272.64Zm-55.28,0a16.59,16.59,0,1,0-16.58,16.51A16.56,16.56,0,0,0,276.38,272.64ZM196,642.82a24.63,24.63,0,1,0-24.62,24.51A24.6,24.6,0,0,0,196,642.82Z"/><rect class="cls-6" x="388.84" y="675.84" width="91.46" height="4"/><rect class="cls-6" x="388.84" y="662.83" width="91.46" height="4"/><rect class="cls-6" x="388.84" y="649.83" width="91.46" height="4"/><rect class="cls-6" x="388.84" y="636.82" width="91.46" height="4"/><rect class="cls-6" x="388.84" y="623.81" width="91.46" height="4"/><path class="cls-3" d="M479.4,314V580.43a13.92,13.92,0,0,1-13.93,13.87h-345a13.92,13.92,0,0,1-13.93-13.87V314a13.92,13.92,0,0,1,13.93-13.87h345A13.92,13.92,0,0,1,479.4,314Z"/><path class="cls-3" d="M470.85,944.45V945a2.23,2.23,0,0,1-2.24,2.23H458a2.23,2.23,0,0,1-2.24-2.23v-.54a2.23,2.23,0,0,1,2.24-2.23h10.59A2.23,2.23,0,0,1,470.85,944.45Z"/><path class="cls-5" d="M471.86,945a3.25,3.25,0,0,1-3.25,3.24H458a3.25,3.25,0,0,1-3.25-3.24v-.54a3.25,3.25,0,0,1,3.25-3.23h10.59a3.25,3.25,0,0,1,3.25,3.23Zm-3.25,2.23a2.23,2.23,0,0,0,2.24-2.23v-.54a2.23,2.23,0,0,0-2.24-2.23H458a2.23,2.23,0,0,0-2.24,2.23V945a2.23,2.23,0,0,0,2.24,2.23Z"/><ellipse class="cls-6" cx="446.48" cy="847.17" rx="7.04" ry="7"/><ellipse class="cls-3" cx="446.23" cy="944.72" rx="3.52" ry="3.5"/><path class="cls-5" d="M335.51,143.45c84.86-72.67,87-72.65,122.36-72,3.46.06,7.39.13,11.69.13H559.3V999H64.82c-38.46,0-63.31-24.74-63.31-63V63.53a62.23,62.23,0,0,1,59.82-62C48.59,4.18,36.75,11.31,27.4,22.11S12.06,46.56,12.06,57c0,11-.05,29.27-.1,49.43-.2,85.17-.14,101.8.09,105.15H5.53v1H196v0C237.47,210.45,270.58,199.05,335.51,143.45ZM543.21,987V86.54H473.07c-4.29,0-8.21-.07-11.66-.13-35.73-.6-37.88-.64-123,72.29-64.94,55.62-97.9,66.84-139.38,68.91H18.59v704A55.61,55.61,0,0,0,74.26,987Z"/><path class="cls-5" d="M446.23,941.22a3.51,3.51,0,1,0,3.52,3.5A3.51,3.51,0,0,0,446.23,941.22Zm0,8a4.51,4.51,0,1,1,4.52-4.51A4.53,4.53,0,0,1,446.23,949.23Z"/><path class="cls-5" d="M438.44,847.17a8,8,0,1,1,8,8A8,8,0,0,1,438.44,847.17Zm1,0a7,7,0,1,0,7-7A7,7,0,0,0,439.45,847.17Z"/><rect class="cls-3" x="421.61" y="942.22" width="15.08" height="5" rx="2.23"/><path class="cls-5" d="M434.44,947.22a2.23,2.23,0,0,0,2.24-2.23v-.54a2.23,2.23,0,0,0-2.24-2.23H423.85a2.23,2.23,0,0,0-2.24,2.23V945a2.23,2.23,0,0,0,2.24,2.23Zm3.25-2.23a3.25,3.25,0,0,1-3.25,3.24H423.85A3.25,3.25,0,0,1,420.6,945v-.54a3.25,3.25,0,0,1,3.25-3.23h10.59a3.25,3.25,0,0,1,3.25,3.23Z"/><ellipse class="cls-3" cx="406.03" cy="944.72" rx="6.53" ry="6.5"/><path class="cls-5" d="M406,938.22a6.51,6.51,0,1,0,6.53,6.5A6.53,6.53,0,0,0,406,938.22Zm0,14a7.51,7.51,0,1,1,7.54-7.51A7.53,7.53,0,0,1,406,952.23Z"/><path class="cls-5" d="M387.84,674.84h93.47v6H387.84Zm1,5H480.3v-4H388.84Z"/><path class="cls-5" d="M387.84,661.83h93.47v6H387.84Zm92.46,1H388.84v4H480.3Z"/><path class="cls-5" d="M387.84,648.83h93.47v6H387.84Zm1,1v4H480.3v-4Z"/><path class="cls-5" d="M387.84,635.82h93.47v6H387.84Zm1,5H480.3v-4H388.84Z"/><path class="cls-5" d="M388.84,627.82H480.3v-4H388.84Zm-1-5h93.47v6H387.84Z"/><path class="cls-5" d="M520,826.91a4.08,4.08,0,0,1,4.08,4.07v32.89a4.08,4.08,0,0,1-4.08,4.07H466.83v53.11A3.92,3.92,0,0,1,462.9,925H428.55a3.92,3.92,0,0,1-3.93-3.91V866.93h-52a3.78,3.78,0,0,1-3.79-3.77v-33a3.79,3.79,0,0,1,3.79-3.77h53.5l-.5-53a4,4,0,0,1,4-4h33.67a4,4,0,0,1,4,4l.5,53.52Zm0,1H466.83l-.5-54.53a3,3,0,0,0-3-3H429.65a3,3,0,0,0-3,3l.5,54h-54.5a2.78,2.78,0,0,0-2.78,2.77v33a2.77,2.77,0,0,0,2.78,2.77h53v55.12a2.91,2.91,0,0,0,2.92,2.91H462.9a2.92,2.92,0,0,0,2.93-2.91V866.93H520a3.06,3.06,0,0,0,3.07-3.06V831A3.06,3.06,0,0,0,520,827.92Z"/><path class="cls-2" d="M347.24,735.87a11,11,0,1,1,0,22H281.91a11,11,0,1,1,0-22Z"/><ellipse class="cls-5" cx="315.07" cy="272.64" rx="15.58" ry="15.51"/><path class="cls-7" d="M327.13,833v87a8.06,8.06,0,0,1-8.07,8H148.27a8.07,8.07,0,0,1-8.07-8V833a8.07,8.07,0,0,1,8.07-8H319.06A8.06,8.06,0,0,1,327.13,833Z"/><path class="cls-5" d="M315.07,257.13a15.51,15.51,0,1,0,15.58,15.51A15.55,15.55,0,0,0,315.07,257.13Zm-16.58,15.51a16.59,16.59,0,1,1,16.58,16.51A16.56,16.56,0,0,1,298.49,272.64Z"/><ellipse class="cls-7" cx="265.83" cy="34.52" rx="12.06" ry="12.01"/><ellipse class="cls-5" cx="259.8" cy="272.64" rx="15.58" ry="15.51"/><path class="cls-5" d="M347.24,734.87a12,12,0,1,1,0,24H281.91a12,12,0,1,1,0-24Zm0,23a11,11,0,1,0,0-22H281.91a11,11,0,1,0,0,22Z"/><path class="cls-5" d="M253.77,34.52a12.06,12.06,0,1,0,12.06-12A12,12,0,0,0,253.77,34.52Zm-1,0a13.07,13.07,0,1,1,13.07,13A13,13,0,0,1,252.76,34.52Z"/><path class="cls-8" d="M233.67,735.87a11,11,0,1,1,0,22H168.34a11,11,0,1,1,0-22Z"/><path class="cls-5" d="M259.8,289.15a16.51,16.51,0,1,1,16.58-16.51A16.57,16.57,0,0,1,259.8,289.15Zm0-32a15.51,15.51,0,1,0,15.58,15.51A15.55,15.55,0,0,0,259.8,257.13Z"/><ellipse class="cls-4" cx="224.62" cy="34.52" rx="12.06" ry="12.01"/><path class="cls-5" d="M237.69,34.52a13.07,13.07,0,1,1-13.07-13A13,13,0,0,1,237.69,34.52Zm-13.07,12a12,12,0,1,0-12.06-12A12,12,0,0,0,224.62,46.52Z"/><ellipse class="cls-8" cx="185.43" cy="34.52" rx="12.06" ry="12.01"/><ellipse class="cls-5" cx="171.36" cy="642.82" rx="23.62" ry="23.51"/><path class="cls-5" d="M172.36,34.52a13.07,13.07,0,1,1,13.07,13A13,13,0,0,1,172.36,34.52Zm13.07,12a12,12,0,1,0-12.06-12A12,12,0,0,0,185.43,46.52Z"/><path class="cls-6" d="M101,46.52a60,60,0,1,1-60.3,60A60.25,60.25,0,0,1,101,46.52Zm51.26,60a51.26,51.26,0,1,0-51.26,51A51.2,51.2,0,0,0,152.26,106.55Z"/><path class="cls-5" d="M233.67,734.87a12,12,0,1,1,0,24H168.34a12,12,0,1,1,0-24Zm0,23a11,11,0,1,0,0-22H168.34a11,11,0,1,0,0,22Z"/><path class="cls-5" d="M147.74,642.82a23.62,23.62,0,1,0,23.62-23.51A23.58,23.58,0,0,0,147.74,642.82Zm-1,0a24.63,24.63,0,1,1,24.63,24.51A24.6,24.6,0,0,1,146.73,642.82Z"/><ellipse class="cls-2" cx="101" cy="106.55" rx="50.25" ry="50.03"/><path class="cls-5" d="M327.13,919.93V833a8.06,8.06,0,0,0-8.07-8H148.27a8.07,8.07,0,0,0-8.07,8v87a8.07,8.07,0,0,0,8.07,8H319.06A8.06,8.06,0,0,0,327.13,919.93Zm1,0a9.07,9.07,0,0,1-9.08,9H148.27a9.08,9.08,0,0,1-9.08-9V833a9.08,9.08,0,0,1,9.08-9H319.06a9.07,9.07,0,0,1,9.08,9Z"/><ellipse class="cls-1" cx="100" cy="744.87" rx="34.17" ry="34.02"/><ellipse class="cls-3" cx="112.56" cy="840.42" rx="6.53" ry="6.5"/><path class="cls-5" d="M480.4,580.43a14.91,14.91,0,0,1-14.93,14.87h-345a14.91,14.91,0,0,1-14.93-14.87V314a14.91,14.91,0,0,1,14.93-14.87h345A14.91,14.91,0,0,1,480.4,314ZM120.46,300.15A13.92,13.92,0,0,0,106.53,314V580.43a13.92,13.92,0,0,0,13.93,13.87h345a13.92,13.92,0,0,0,13.93-13.87V314a13.92,13.92,0,0,0-13.93-13.87Z"/><path class="cls-5" d="M112.56,833.92a6.5,6.5,0,1,0,6.53,6.5A6.53,6.53,0,0,0,112.56,833.92Zm0,14a7.51,7.51,0,1,1,7.54-7.51A7.54,7.54,0,0,1,112.56,847.93Z"/><path class="cls-5" d="M100,779.89a35,35,0,1,0-35.18-35A35.13,35.13,0,0,0,100,779.89ZM542.21,87.54V986H74.26A54.6,54.6,0,0,1,19.6,931.58v-703H199.5v0C241,226.45,274.1,215.06,339,159.46c84.87-72.68,87-72.65,122.37-72.05,3.45.06,7.38.13,11.68.13ZM524.12,863.87V831a4.08,4.08,0,0,0-4.08-4.07h-52.2l-.5-53.52a4,4,0,0,0-4-4H429.65a4,4,0,0,0-4,4l.5,53h-53.5a3.79,3.79,0,0,0-3.79,3.77v33a3.78,3.78,0,0,0,3.79,3.77h52v54.12a3.92,3.92,0,0,0,3.93,3.91H462.9a3.92,3.92,0,0,0,3.93-3.91V867.94H520A4.08,4.08,0,0,0,524.12,863.87ZM520.6,684.72v-427A17.62,17.62,0,0,0,503,240.12H72.2A17.91,17.91,0,0,0,54.27,258V616l75.5,90.18.15.18h369A21.7,21.7,0,0,0,520.6,684.72ZM471.86,945v-.54a3.25,3.25,0,0,0-3.25-3.23H458a3.25,3.25,0,0,0-3.25,3.23V945a3.25,3.25,0,0,0,3.25,3.24h10.59A3.25,3.25,0,0,0,471.86,945Zm-21.11-.27a4.52,4.52,0,1,0-4.52,4.51A4.52,4.52,0,0,0,450.75,944.72Zm-13.06.27v-.54a3.25,3.25,0,0,0-3.25-3.23H423.85a3.25,3.25,0,0,0-3.25,3.23V945a3.25,3.25,0,0,0,3.25,3.24h10.59A3.25,3.25,0,0,0,437.69,945Zm-24.12-.27a7.54,7.54,0,1,0-7.54,7.51A7.52,7.52,0,0,0,413.57,944.72ZM359.3,746.87a12,12,0,0,0-12.06-12H281.91a12,12,0,1,0,0,24h65.33A12,12,0,0,0,359.3,746.87ZM328.14,919.93V833a9.07,9.07,0,0,0-9.08-9H148.27a9.08,9.08,0,0,0-9.08,9v87a9.08,9.08,0,0,0,9.08,9H319.06A9.07,9.07,0,0,0,328.14,919.93ZM245.73,746.87a12,12,0,0,0-12.06-12H168.34a12,12,0,1,0,0,24h65.33A12,12,0,0,0,245.73,746.87ZM120.1,840.42a7.54,7.54,0,1,0-7.54,7.51A7.52,7.52,0,0,0,120.1,840.42Zm-43.22,0a7.54,7.54,0,1,0-7.53,7.51A7.52,7.52,0,0,0,76.88,840.42Z"/><ellipse class="cls-3" cx="69.35" cy="840.42" rx="6.53" ry="6.5"/><path class="cls-5" d="M134.17,744.87a34.17,34.17,0,1,0-34.17,34A34.13,34.13,0,0,0,134.17,744.87Zm-34.17-35a35,35,0,1,1-35.18,35A35.12,35.12,0,0,1,100,709.86Z"/><path class="cls-5" d="M61.81,840.42a7.54,7.54,0,1,1,7.54,7.51A7.52,7.52,0,0,1,61.81,840.42Zm1,0a6.54,6.54,0,1,0,6.54-6.5A6.53,6.53,0,0,0,62.81,840.42Z"/><path class="cls-5" d="M520.6,684.72a21.7,21.7,0,0,1-21.73,21.63h-369l-.15-.18L54.27,616V258A17.91,17.91,0,0,1,72.2,240.12H503a17.62,17.62,0,0,1,17.64,17.55Zm-1,0v-427A16.61,16.61,0,0,0,503,241.12H72.2A16.9,16.9,0,0,0,55.28,258V615.63l75.1,89.72H498.87A20.7,20.7,0,0,0,519.6,684.72Z"/><path class="cls-5" d="M101,55.53a51,51,0,1,1-51.25,51A51.2,51.2,0,0,1,101,55.53Zm0,101.05a50,50,0,1,0-50.25-50A50.2,50.2,0,0,0,101,156.58Z"/><path class="cls-5" d="M101,45.52a61,61,0,1,1-61.3,61A61.24,61.24,0,0,1,101,45.52Zm0,121.06a60,60,0,1,0-60.3-60A60.24,60.24,0,0,0,101,166.58Z"/><path class="cls-5" d="M338.36,158.7c85.17-72.93,87.32-72.89,123.05-72.29,3.45.06,7.37.13,11.66.13h70.14V987H74.26a55.61,55.61,0,0,1-55.67-55.41v-704H199C240.46,225.54,273.42,214.32,338.36,158.7Zm123-71.29c-35.38-.6-37.5-.63-122.37,72.05-64.92,55.6-98,67-139.52,69.13v0H19.6v703A54.6,54.6,0,0,0,74.26,986h468V87.54H473.07C468.77,87.54,464.84,87.47,461.39,87.41Z"/><path class="cls-5" d="M635.68,905H560.3v94h75.38Zm-75.38-1h75.38V171.59H560.3Zm75.38,96H64.82c-17.95,0-34.1-5.8-45.46-16.33C7,972.25.5,955.76.5,936V63.53A63.25,63.25,0,0,1,63.82.5H636.68V70.55h74.41c4.56,0,8.81-.07,12.92-.13,42-.62,63-.93,144.66,70.27,70.12,61.18,98.16,68.85,141.4,70.92H1200.5v.5l-.5,731.17c0,31.55-26.85,57.22-59.85,57.22H635.68ZM334.84,142.69C420,69.77,422.15,69.81,457.89,70.41c3.46.06,7.38.13,11.67.13H585.43v1H560.3v99.05h75.38V1.5H69.37C32.93,3.58,13.06,39.27,13.06,57c0,11-.05,29.27-.1,49.43-.11,44.67-.24,99.87,0,105.15H195.47C236.94,209.54,269.9,198.31,334.84,142.69Zm864.66,69.92H1010.05c-43.5-2.08-71.68-9.78-142-71.17-81.33-70.95-102.27-70.64-144-70-4.12.06-8.37.13-12.94.13H636.68v928h503.47c32.44,0,58.84-25.22,58.84-56.22ZM559.3,71.54H469.56c-4.3,0-8.23-.07-11.69-.13-35.38-.61-37.5-.63-122.36,72-64.93,55.6-98,67-139.53,69.13v0H5.53v-1h6.52c-.23-3.35-.29-20-.09-105.15,0-20.16.1-38.39.1-49.43,0-10.47,6-24.16,15.34-34.92S48.59,4.18,61.33,1.55a62.23,62.23,0,0,0-59.82,62V936c0,38.29,24.85,63,63.31,63H559.3Z"/><path class="cls-9" d="M1140.15,1000.5H635.68v-.5H64.82c-17.95,0-34.1-5.8-45.46-16.33C7,972.25.5,955.76.5,936V63.53A63.25,63.25,0,0,1,63.82.5H636.68V70.55h74.41c4.56,0,8.81-.07,12.92-.13,42-.62,63-.93,144.66,70.27,70.12,61.18,98.16,68.85,141.4,70.92H1200.5v.5l-.5,731.17C1200,974.83,1173.15,1000.5,1140.15,1000.5Z"/><path class="cls-9" d="M636.68,999.5h503.47c32.44,0,58.84-25.22,58.84-56.22l.51-730.67H1010.05c-43.5-2.08-71.68-9.78-142-71.17-81.33-70.95-102.27-70.64-144-70-4.12.06-8.37.13-12.94.13H636.68Z"/><rect class="cls-9" x="560.3" y="171.59" width="75.38" height="732.37"/><line class="cls-9" x1="560.3" y1="903.95" x2="560.3" y2="904.95"/><rect class="cls-9" x="560.3" y="904.95" width="75.38" height="94.05"/><path class="cls-9" d="M61.33,1.55a62.23,62.23,0,0,0-59.82,62V936c0,38.29,24.85,63,63.31,63H559.3V71.54H469.56c-4.3,0-8.23-.07-11.69-.13-35.38-.61-37.5-.63-122.36,72-64.93,55.6-98,67-139.53,69.13v0H5.53v-1h6.52c-.23-3.35-.29-20-.09-105.15,0-20.16.1-38.39.1-49.43,0-10.47,6-24.16,15.34-34.92S48.59,4.18,61.33,1.55Z"/><path class="cls-9" d="M13,211.61H195.47c41.47-2.07,74.43-13.3,139.37-68.92C420,69.77,422.15,69.81,457.89,70.41c3.46.06,7.38.13,11.67.13H585.43v1H560.3v99.05h75.38V1.5H69.37C32.93,3.58,13.06,39.27,13.06,57c0,11-.05,29.27-.1,49.43C12.85,151.13,12.72,206.33,13,211.61Z"/><path class="cls-9" d="M1125.74,987h-469V86.54h70.14c4.29,0,8.21-.07,11.67-.13,35.75-.6,37.88-.64,123,72.29,64.94,55.62,97.9,66.84,139.37,68.91h180.4v704A55.61,55.61,0,0,1,1125.74,987Z"/><path class="cls-9" d="M657.79,986h468a54.6,54.6,0,0,0,54.66-54.41v-703H1000.5v0C959,226.45,925.9,215.06,861,159.46c-84.86-72.68-87-72.65-122.36-72.05-3.47.06-7.39.13-11.69.13H657.79Z"/><path class="cls-9" d="M543.21,987H74.26a55.61,55.61,0,0,1-55.67-55.41v-704H199c41.48-2.07,74.44-13.29,139.38-68.91,85.17-72.93,87.32-72.89,123.05-72.29,3.45.06,7.37.13,11.66.13h70.14Z"/><path class="cls-9" d="M19.6,228.62v703A54.6,54.6,0,0,0,74.26,986h468V87.54H473.07c-4.3,0-8.23-.07-11.68-.13-35.38-.6-37.5-.63-122.37,72.05-64.92,55.6-98,67-139.52,69.13v0Z"/><ellipse class="cls-9" cx="406.03" cy="944.72" rx="7.54" ry="7.5"/><ellipse class="cls-9" cx="406.03" cy="944.72" rx="6.53" ry="6.5"/><ellipse class="cls-9" cx="446.23" cy="944.72" rx="4.52" ry="4.5"/><ellipse class="cls-9" cx="446.23" cy="944.72" rx="3.52" ry="3.5"/><path class="cls-9" d="M468.61,948.23H458a3.25,3.25,0,0,1-3.25-3.24v-.54a3.25,3.25,0,0,1,3.25-3.23h10.59a3.25,3.25,0,0,1,3.25,3.23V945A3.25,3.25,0,0,1,468.61,948.23Z"/><path class="cls-9" d="M458,942.22a2.23,2.23,0,0,0-2.24,2.23V945a2.23,2.23,0,0,0,2.24,2.23h10.59a2.23,2.23,0,0,0,2.24-2.23v-.54a2.23,2.23,0,0,0-2.24-2.23Z"/><path class="cls-9" d="M434.44,948.23H423.85A3.25,3.25,0,0,1,420.6,945v-.54a3.25,3.25,0,0,1,3.25-3.23h10.59a3.25,3.25,0,0,1,3.25,3.23V945A3.25,3.25,0,0,1,434.44,948.23Z"/><rect class="cls-9" x="421.61" y="942.22" width="15.08" height="5" rx="2.23"/><path class="cls-9" d="M319.06,929H148.27a9.08,9.08,0,0,1-9.08-9V833a9.08,9.08,0,0,1,9.08-9H319.06a9.07,9.07,0,0,1,9.08,9v87A9.07,9.07,0,0,1,319.06,929Z"/><path class="cls-9" d="M148.27,824.91a8.07,8.07,0,0,0-8.07,8v87a8.07,8.07,0,0,0,8.07,8H319.06a8.06,8.06,0,0,0,8.07-8V833a8.06,8.06,0,0,0-8.07-8Z"/><path class="cls-9" d="M462.9,925H428.55a3.92,3.92,0,0,1-3.93-3.91V866.93h-52a3.78,3.78,0,0,1-3.79-3.77v-33a3.79,3.79,0,0,1,3.79-3.77h53.5l-.5-53a4,4,0,0,1,4-4h33.67a4,4,0,0,1,4,4l.5,53.52H520a4.08,4.08,0,0,1,4.08,4.07v32.89a4.08,4.08,0,0,1-4.08,4.07H466.83v53.11A3.92,3.92,0,0,1,462.9,925Z"/><path class="cls-9" d="M372.63,827.41a2.78,2.78,0,0,0-2.78,2.77v33a2.77,2.77,0,0,0,2.78,2.77h53v55.12a2.91,2.91,0,0,0,2.92,2.91H462.9a2.92,2.92,0,0,0,2.93-2.91V866.93H520a3.06,3.06,0,0,0,3.07-3.06V831a3.06,3.06,0,0,0-3.07-3.06H466.83l-.5-54.53a3,3,0,0,0-3-3H429.65a3,3,0,0,0-3,3l.5,54Z"/><path class="cls-9" d="M1112.69,881.94h-157a9.42,9.42,0,0,1-9.43-9.38V818.28a9.41,9.41,0,0,1,9.43-9.37h157a9.41,9.41,0,0,1,9.42,9.37v54.28A9.41,9.41,0,0,1,1112.69,881.94Z"/><path class="cls-9" d="M955.66,809.91a8.4,8.4,0,0,0-8.42,8.37v54.28a8.41,8.41,0,0,0,8.42,8.38h157a8.4,8.4,0,0,0,8.41-8.38V818.28a8.4,8.4,0,0,0-8.41-8.37Z"/><path class="cls-9" d="M871.48,881.94h-157a9.42,9.42,0,0,1-9.43-9.38V818.28a9.41,9.41,0,0,1,9.43-9.37h157a9.41,9.41,0,0,1,9.42,9.37v54.28A9.41,9.41,0,0,1,871.48,881.94Z"/><path class="cls-9" d="M714.45,809.91a8.41,8.41,0,0,0-8.42,8.37v54.28a8.41,8.41,0,0,0,8.42,8.38h157a8.41,8.41,0,0,0,8.42-8.38V818.28a8.41,8.41,0,0,0-8.42-8.37Z"/><ellipse class="cls-9" cx="446.48" cy="847.17" rx="8.04" ry="8"/><ellipse class="cls-9" cx="446.48" cy="847.17" rx="7.04" ry="7"/><ellipse class="cls-9" cx="112.56" cy="840.42" rx="7.54" ry="7.5"/><ellipse class="cls-9" cx="112.56" cy="840.42" rx="6.53" ry="6.5"/><ellipse class="cls-9" cx="69.35" cy="840.42" rx="7.54" ry="7.5"/><ellipse class="cls-9" cx="69.35" cy="840.42" rx="6.53" ry="6.5"/><ellipse class="cls-9" cx="100" cy="744.87" rx="35.18" ry="35.02"/><ellipse class="cls-9" cx="100" cy="744.87" rx="34.17" ry="34.02"/><path class="cls-9" d="M347.24,758.88H281.91a12,12,0,1,1,0-24h65.33a12,12,0,1,1,0,24Z"/><path class="cls-9" d="M281.91,735.87a11,11,0,1,0,0,22h65.33a11,11,0,1,0,0-22Z"/><path class="cls-9" d="M233.67,758.88H168.34a12,12,0,1,1,0-24h65.33a12,12,0,1,1,0,24Z"/><path class="cls-9" d="M168.34,735.87a11,11,0,1,0,0,22h65.33a11,11,0,1,0,0-22Z"/><ellipse class="cls-9" cx="1087.94" cy="729.87" rx="23.12" ry="23.01"/><ellipse class="cls-9" cx="1087.94" cy="729.87" rx="22.11" ry="22.01"/><path class="cls-9" d="M863.5,742.87H714.39a9.35,9.35,0,0,1-9.37-9.32V680.16a9.35,9.35,0,0,1,9.37-9.32H863.5a9.35,9.35,0,0,1,9.36,9.32v53.39A9.35,9.35,0,0,1,863.5,742.87Z"/><path class="cls-9" d="M789.45,741.87h74a8.35,8.35,0,0,0,8.36-8.32V680.16a8.35,8.35,0,0,0-8.36-8.32h-74Z"/><path class="cls-9" d="M714.39,671.84a8.35,8.35,0,0,0-8.36,8.32v53.39a8.35,8.35,0,0,0,8.36,8.32h74.05v-70Z"/><path class="cls-9" d="M498.87,706.35h-369l-.15-.18L54.27,616V258A17.91,17.91,0,0,1,72.2,240.12H503a17.62,17.62,0,0,1,17.64,17.55V684.72A21.7,21.7,0,0,1,498.87,706.35Z"/><path class="cls-9" d="M130.38,705.35H498.87a20.7,20.7,0,0,0,20.73-20.63v-427A16.61,16.61,0,0,0,503,241.12H72.2A16.9,16.9,0,0,0,55.28,258V615.63Z"/><rect class="cls-9" x="387.84" y="674.84" width="93.47" height="6"/><rect class="cls-9" x="388.84" y="675.84" width="91.46" height="4"/><rect class="cls-9" x="387.84" y="661.83" width="93.47" height="6"/><rect class="cls-9" x="388.84" y="662.83" width="91.46" height="4"/><ellipse class="cls-9" cx="171.36" cy="642.82" rx="24.62" ry="24.51"/><ellipse class="cls-9" cx="171.36" cy="642.82" rx="23.62" ry="23.51"/><rect class="cls-9" x="387.84" y="648.83" width="93.47" height="6"/><rect class="cls-9" x="388.84" y="649.83" width="91.46" height="4"/><path class="cls-9" d="M1118.09,648.83h-59.3a4,4,0,0,1-4-4v-8a4,4,0,0,1,4-4h59.3a4,4,0,0,1,4,4v8A4,4,0,0,1,1118.09,648.83Z"/><path class="cls-9" d="M1058.79,633.82a3,3,0,0,0-3,3v8a3,3,0,0,0,3,3h59.3a3,3,0,0,0,3-3v-8a3,3,0,0,0-3-3Z"/><path class="cls-9" d="M1036.68,648.83H977.39a4,4,0,0,1-4-4v-8a4,4,0,0,1,4-4h59.29a4,4,0,0,1,4,4v8A4,4,0,0,1,1036.68,648.83Z"/><path class="cls-9" d="M977.39,633.82a3,3,0,0,0-3,3v8a3,3,0,0,0,3,3h59.29a3,3,0,0,0,3-3v-8a3,3,0,0,0-3-3Z"/><rect class="cls-9" x="387.84" y="635.82" width="93.47" height="6"/><rect class="cls-9" x="388.84" y="636.82" width="91.46" height="4"/><rect class="cls-9" x="387.84" y="622.81" width="93.47" height="6"/><rect class="cls-9" x="388.84" y="623.81" width="91.46" height="4"/><path class="cls-9" d="M1113.8,619.81H713.34a8.3,8.3,0,0,1-8.32-8.27V483a8.3,8.3,0,0,1,8.32-8.27H1113.8a8.3,8.3,0,0,1,8.31,8.27V611.54A8.3,8.3,0,0,1,1113.8,619.81Z"/><path class="cls-9" d="M1040.41,618.81h73.39a7.29,7.29,0,0,0,7.3-7.27V547.29H1041C1040.87,573.46,1040.6,600.93,1040.41,618.81Z"/><path class="cls-9" d="M956,618.81h83.42c.21-19.68.45-46.44.58-71.52h-83.4C956.45,573.46,956.18,600.93,956,618.81Z"/><path class="cls-9" d="M872.57,618.81H955c.21-19.68.46-46.44.59-71.52h-82.4C873,573.46,872.76,600.93,872.57,618.81Z"/><path class="cls-9" d="M789.15,618.81h82.42c.21-19.68.45-46.44.58-71.52H789.76C789.62,573.46,789.35,600.93,789.15,618.81Z"/><path class="cls-9" d="M706,547.29v64.25a7.3,7.3,0,0,0,7.31,7.27h74.81c.21-19.68.45-46.44.58-71.52Z"/><path class="cls-9" d="M1041,546.29h80.09V483a7.29,7.29,0,0,0-7.3-7.27h-73.32C1041.16,481.25,1041.19,512.57,1041,546.29Z"/><path class="cls-9" d="M956.59,546.29H1040c.18-35.32.16-67.06-.44-70.55h-83.5C956.74,481.25,956.77,512.57,956.59,546.29Z"/><path class="cls-9" d="M873.17,546.29h82.41c.18-35.32.16-67.06-.45-70.55H872.64C873.33,481.25,873.36,512.57,873.17,546.29Z"/><path class="cls-9" d="M789.76,546.29h82.4c.18-35.32.16-67.06-.44-70.55h-82.5C789.91,481.25,789.94,512.57,789.76,546.29Z"/><path class="cls-9" d="M706,546.29h82.71c.18-35.32.16-67.06-.44-70.55h-75A7.3,7.3,0,0,0,706,483Z"/><path class="cls-9" d="M465.47,595.3h-345a14.91,14.91,0,0,1-14.93-14.87V314a14.91,14.91,0,0,1,14.93-14.87h345A14.91,14.91,0,0,1,480.4,314V580.43A14.91,14.91,0,0,1,465.47,595.3Z"/><path class="cls-9" d="M120.46,300.15A13.92,13.92,0,0,0,106.53,314V580.43a13.92,13.92,0,0,0,13.93,13.87h345a13.92,13.92,0,0,0,13.93-13.87V314a13.92,13.92,0,0,0-13.93-13.87Z"/><path class="cls-9" d="M1106,427.71H720.6a14.3,14.3,0,0,1-14.32-14.25V296.9a14.31,14.31,0,0,1,14.32-14.26H1106a14.31,14.31,0,0,1,14.32,14.26V413.46A14.3,14.3,0,0,1,1106,427.71Z"/><path class="cls-9" d="M720.6,283.64a13.3,13.3,0,0,0-13.31,13.26V413.46a13.3,13.3,0,0,0,13.31,13.25H1106a13.3,13.3,0,0,0,13.32-13.25V296.9A13.3,13.3,0,0,0,1106,283.64Z"/><ellipse class="cls-9" cx="315.07" cy="272.64" rx="16.58" ry="16.51"/><ellipse class="cls-9" cx="315.07" cy="272.64" rx="15.58" ry="15.51"/><ellipse class="cls-9" cx="259.8" cy="272.64" rx="16.58" ry="16.51"/><ellipse class="cls-9" cx="259.8" cy="272.64" rx="15.58" ry="15.51"/><ellipse class="cls-9" cx="101" cy="106.55" rx="61.31" ry="61.03"/><ellipse class="cls-9" cx="101" cy="106.55" rx="60.3" ry="60.03"/><ellipse class="cls-9" cx="101" cy="106.55" rx="51.26" ry="51.03"/><ellipse class="cls-9" cx="101" cy="106.55" rx="50.25" ry="50.03"/><ellipse class="cls-9" cx="265.83" cy="34.52" rx="13.07" ry="13.01"/><ellipse class="cls-9" cx="265.83" cy="34.52" rx="12.06" ry="12.01"/><ellipse class="cls-9" cx="224.62" cy="34.52" rx="13.07" ry="13.01"/><ellipse class="cls-9" cx="224.62" cy="34.52" rx="12.06" ry="12.01"/><ellipse class="cls-9" cx="185.43" cy="34.52" rx="13.07" ry="13.01"/><ellipse class="cls-9" cx="185.43" cy="34.52" rx="12.06" ry="12.01"/></g></g></svg>